<svg xmlns="http://www.w3.org/2000/svg" xmlns:xlink="http://www.w3.org/1999/xlink" width="459.403" height="812" viewBox="0 0 459.403 812">
  <defs>
    <clipPath id="clip-path">
      <rect id="Retângulo_1493" data-name="Retângulo 1493" width="206.655" height="413.167" fill="none"/>
    </clipPath>
    <clipPath id="clip-path-2">
      <rect id="Retângulo_1492" data-name="Retângulo 1492" width="401.412" height="432.762" fill="none"/>
    </clipPath>
    <linearGradient id="linear-gradient" y1="0.5" x2="1" y2="0.5" gradientUnits="objectBoundingBox">
      <stop offset="0" stop-color="#a3a3a3"/>
      <stop offset="1" stop-color="#fff"/>
    </linearGradient>
    <clipPath id="clip-path-3">
      <rect id="Retângulo_1495" data-name="Retângulo 1495" width="252.751" height="413.735" transform="translate(252.751 413.735) rotate(180)" fill="none"/>
    </clipPath>
    <clipPath id="clip-path-4">
      <rect id="Retângulo_1494" data-name="Retângulo 1494" width="401.412" height="432.762" transform="translate(401.412 432.762) rotate(180)" fill="none"/>
    </clipPath>
    <linearGradient id="linear-gradient-53" x1="146.587" y1="150.405" x2="147.587" y2="150.405" xlink:href="#linear-gradient"/>
    <linearGradient id="linear-gradient-104" x1="6.359" y1="7.003" x2="7.359" y2="7.003" xlink:href="#linear-gradient"/>
  </defs>
  <g id="Grupo_1032" data-name="Grupo 1032" transform="translate(1770.306 -3445)">
    <g id="Grupo_22" data-name="Grupo 22" transform="translate(-1766.5 3359)">
      <g id="black" transform="translate(20.5 86)">
        <rect id="black-2" data-name="black" width="375.5" height="812" fill="#fff"/>
        <rect id="black-3" data-name="black" width="375.5" height="812" fill="#fff"/>
      </g>
      <rect id="image" width="375.5" height="812" transform="translate(20.5 86)" fill="#fff"/>
    </g>
    <g id="Grupo_823" data-name="Grupo 823" transform="translate(-1745.973 3508.799)">
      <g id="Grupo_817" data-name="Grupo 817" transform="translate(-24.333 -49.799)">
        <g id="Grupo_816" data-name="Grupo 816" clip-path="url(#clip-path)">
          <g id="Grupo_815" data-name="Grupo 815" transform="translate(-8.616 -19.595)" opacity="0.7">
            <g id="Grupo_814" data-name="Grupo 814" clip-path="url(#clip-path-2)">
              <g id="Grupo_813" data-name="Grupo 813" transform="translate(23.941 55.291)">
                <path id="Caminho_251" data-name="Caminho 251" d="M276.889,274.067a7.834,7.834,0,1,0,7.834,7.833A7.843,7.843,0,0,0,276.889,274.067Zm0,16.02a8.187,8.187,0,1,1,8.188-8.187A8.2,8.2,0,0,1,276.889,290.087Z" transform="translate(-88.153 -93.164)" fill="url(#linear-gradient)"/>
                <path id="Caminho_252" data-name="Caminho 252" d="M275.133,268.771a11.374,11.374,0,1,0,11.374,11.373A11.387,11.387,0,0,0,275.133,268.771Zm0-.354a11.689,11.689,0,1,1-4.565.924A11.664,11.664,0,0,1,275.133,268.417Z" transform="translate(-86.397 -91.408)" fill="url(#linear-gradient)"/>
                <path id="Caminho_253" data-name="Caminho 253" d="M273.377,263.475a14.914,14.914,0,1,0,14.914,14.913A14.931,14.931,0,0,0,273.377,263.475Zm0-.354a15.223,15.223,0,1,1-5.942,1.2A15.178,15.178,0,0,1,273.377,263.121Z" transform="translate(-84.641 -89.652)" fill="url(#linear-gradient)"/>
                <path id="Caminho_254" data-name="Caminho 254" d="M271.621,258.178a18.454,18.454,0,1,0,18.455,18.454A18.475,18.475,0,0,0,271.621,258.178Zm0-.353a18.749,18.749,0,1,1-7.321,1.48A18.7,18.7,0,0,1,271.621,257.825Z" transform="translate(-82.885 -87.896)" fill="url(#linear-gradient)"/>
                <path id="Caminho_255" data-name="Caminho 255" d="M269.865,252.882a21.994,21.994,0,1,0,21.995,21.994A22.019,22.019,0,0,0,269.865,252.882Zm0-.354a22.284,22.284,0,1,1-8.7,1.759A22.215,22.215,0,0,1,269.865,252.528Z" transform="translate(-81.129 -86.14)" fill="url(#linear-gradient)"/>
                <path id="Caminho_256" data-name="Caminho 256" d="M268.109,247.586a25.534,25.534,0,1,0,25.535,25.534A25.563,25.563,0,0,0,268.109,247.586Zm0-.354a25.81,25.81,0,1,1-10.077,2.037A25.723,25.723,0,0,1,268.109,247.232Z" transform="translate(-79.373 -84.384)" fill="url(#linear-gradient)"/>
                <path id="Caminho_257" data-name="Caminho 257" d="M266.352,242.29a29.074,29.074,0,1,0,29.075,29.074A29.107,29.107,0,0,0,266.352,242.29Zm0-.354a29.34,29.34,0,1,1-11.454,2.315A29.25,29.25,0,0,1,266.352,241.936Z" transform="translate(-77.617 -82.628)" fill="url(#linear-gradient)"/>
                <path id="Caminho_258" data-name="Caminho 258" d="M264.6,236.993a32.615,32.615,0,1,0,32.615,32.615A32.652,32.652,0,0,0,264.6,236.993Zm0-.353a32.86,32.86,0,1,1-12.833,2.592A32.758,32.758,0,0,1,264.6,236.64Z" transform="translate(-75.861 -80.872)" fill="url(#linear-gradient)"/>
                <path id="Caminho_259" data-name="Caminho 259" d="M262.84,231.7A36.155,36.155,0,1,0,299,267.851,36.2,36.2,0,0,0,262.84,231.7Zm0-.354a36.391,36.391,0,1,1-14.211,2.871A36.3,36.3,0,0,1,262.84,231.343Z" transform="translate(-74.105 -79.116)" fill="url(#linear-gradient)"/>
                <path id="Caminho_260" data-name="Caminho 260" d="M261.084,226.4a39.695,39.695,0,1,0,39.7,39.695A39.74,39.74,0,0,0,261.084,226.4Zm0-.354A39.921,39.921,0,1,1,245.5,229.2,39.811,39.811,0,0,1,261.084,226.047Z" transform="translate(-72.349 -77.36)" fill="url(#linear-gradient)"/>
                <path id="Caminho_261" data-name="Caminho 261" d="M259.328,221.1a43.235,43.235,0,1,0,43.235,43.235A43.284,43.284,0,0,0,259.328,221.1Zm0-.354a43.448,43.448,0,1,1-16.967,3.427A43.32,43.32,0,0,1,259.328,220.751Z" transform="translate(-70.592 -75.604)" fill="url(#linear-gradient)"/>
                <path id="Caminho_262" data-name="Caminho 262" d="M257.572,215.808a46.775,46.775,0,1,0,46.776,46.775A46.828,46.828,0,0,0,257.572,215.808Zm0-.353a46.981,46.981,0,1,1-18.344,3.705A46.847,46.847,0,0,1,257.572,215.455Z" transform="translate(-68.836 -73.848)" fill="url(#linear-gradient)"/>
                <path id="Caminho_263" data-name="Caminho 263" d="M255.816,210.512a50.316,50.316,0,1,0,50.316,50.315A50.373,50.373,0,0,0,255.816,210.512Zm0-.354a50.515,50.515,0,1,1-19.723,3.984A50.356,50.356,0,0,1,255.816,210.158Z" transform="translate(-67.08 -72.091)" fill="url(#linear-gradient)"/>
                <path id="Caminho_264" data-name="Caminho 264" d="M254.06,205.216a53.856,53.856,0,1,0,53.856,53.855A53.917,53.917,0,0,0,254.06,205.216Zm0-.354a54.045,54.045,0,1,1-21.1,4.262A53.87,53.87,0,0,1,254.06,204.862Z" transform="translate(-65.324 -70.335)" fill="url(#linear-gradient)"/>
                <path id="Caminho_265" data-name="Caminho 265" d="M252.3,199.92a57.4,57.4,0,1,0,57.4,57.4A57.461,57.461,0,0,0,252.3,199.92Zm0-.354a57.572,57.572,0,1,1-22.479,4.54A57.391,57.391,0,0,1,252.3,199.566Z" transform="translate(-63.568 -68.579)" fill="url(#linear-gradient)"/>
                <path id="Caminho_266" data-name="Caminho 266" d="M250.548,194.623a60.936,60.936,0,1,0,60.937,60.936A61.005,61.005,0,0,0,250.548,194.623Zm0-.353a61.1,61.1,0,1,1-23.856,4.818A60.906,60.906,0,0,1,250.548,194.27Z" transform="translate(-61.812 -66.823)" fill="url(#linear-gradient)"/>
                <path id="Caminho_267" data-name="Caminho 267" d="M248.792,189.327A64.476,64.476,0,1,0,313.268,253.8,64.549,64.549,0,0,0,248.792,189.327Zm0-.354a64.625,64.625,0,1,1-25.235,5.1A64.438,64.438,0,0,1,248.792,188.973Z" transform="translate(-60.056 -65.067)" fill="url(#linear-gradient)"/>
                <path id="Caminho_268" data-name="Caminho 268" d="M247.036,184.031a68.016,68.016,0,1,0,68.017,68.016A68.094,68.094,0,0,0,247.036,184.031Zm0-.354a68.155,68.155,0,1,1-26.612,5.374A67.953,67.953,0,0,1,247.036,183.677Z" transform="translate(-58.3 -63.311)" fill="url(#linear-gradient)"/>
                <path id="Caminho_269" data-name="Caminho 269" d="M245.279,178.735a71.556,71.556,0,1,0,71.557,71.556A71.638,71.638,0,0,0,245.279,178.735Zm0-.354a71.682,71.682,0,1,1-27.99,5.652A71.462,71.462,0,0,1,245.279,178.381Z" transform="translate(-56.544 -61.555)" fill="url(#linear-gradient)"/>
                <path id="Caminho_270" data-name="Caminho 270" d="M243.523,173.438a75.1,75.1,0,1,0,75.1,75.1A75.182,75.182,0,0,0,243.523,173.438Zm0-.353a75.209,75.209,0,1,1-29.369,5.93A74.99,74.99,0,0,1,243.523,173.085Z" transform="translate(-54.788 -59.799)" fill="url(#linear-gradient)"/>
                <path id="Caminho_271" data-name="Caminho 271" d="M241.767,168.142A78.637,78.637,0,1,0,320.4,246.778,78.726,78.726,0,0,0,241.767,168.142Zm0-.354A78.743,78.743,0,1,1,211.021,174,78.5,78.5,0,0,1,241.767,167.788Z" transform="translate(-53.032 -58.043)" fill="url(#linear-gradient)"/>
                <path id="Caminho_272" data-name="Caminho 272" d="M240.011,162.846a82.177,82.177,0,1,0,82.177,82.177A82.271,82.271,0,0,0,240.011,162.846Zm0-.354a82.273,82.273,0,1,1-32.125,6.487A82.012,82.012,0,0,1,240.011,162.492Z" transform="translate(-51.276 -56.287)" fill="url(#linear-gradient)"/>
                <path id="Caminho_273" data-name="Caminho 273" d="M238.255,157.55a85.717,85.717,0,1,0,85.717,85.717A85.814,85.814,0,0,0,238.255,157.55Zm0-.354a85.806,85.806,0,1,1-33.5,6.765A85.533,85.533,0,0,1,238.255,157.2Z" transform="translate(-49.519 -54.531)" fill="url(#linear-gradient)"/>
                <path id="Caminho_274" data-name="Caminho 274" d="M236.5,152.253a89.257,89.257,0,1,0,89.257,89.257A89.359,89.359,0,0,0,236.5,152.253Zm0-.353a89.333,89.333,0,1,1-34.881,7.043A89.046,89.046,0,0,1,236.5,151.9Z" transform="translate(-47.763 -52.775)" fill="url(#linear-gradient)"/>
                <path id="Caminho_275" data-name="Caminho 275" d="M234.743,146.957a92.8,92.8,0,1,0,92.8,92.8A92.9,92.9,0,0,0,234.743,146.957Zm0-.354a92.867,92.867,0,1,1-36.258,7.322A92.574,92.574,0,0,1,234.743,146.6Z" transform="translate(-46.007 -51.018)" fill="url(#linear-gradient)"/>
                <path id="Caminho_276" data-name="Caminho 276" d="M232.987,141.661A96.338,96.338,0,1,0,329.325,238,96.447,96.447,0,0,0,232.987,141.661Zm0-.354a96.387,96.387,0,1,1-37.637,7.6A96.094,96.094,0,0,1,232.987,141.307Z" transform="translate(-44.251 -49.262)" fill="url(#linear-gradient)"/>
                <path id="Caminho_277" data-name="Caminho 277" d="M231.231,136.365a99.878,99.878,0,1,0,99.878,99.877A99.991,99.991,0,0,0,231.231,136.365Zm0-.354a99.917,99.917,0,1,1-39.014,7.877A99.608,99.608,0,0,1,231.231,136.011Z" transform="translate(-42.495 -47.506)" fill="url(#linear-gradient)"/>
                <path id="Caminho_278" data-name="Caminho 278" d="M229.475,131.068A103.418,103.418,0,1,0,332.893,234.486,103.535,103.535,0,0,0,229.475,131.068Zm0-.353a103.443,103.443,0,1,1-40.393,8.156A103.129,103.129,0,0,1,229.475,130.715Z" transform="translate(-40.739 -45.75)" fill="url(#linear-gradient)"/>
                <path id="Caminho_279" data-name="Caminho 279" d="M227.719,125.772A106.958,106.958,0,1,0,334.677,232.73,107.079,107.079,0,0,0,227.719,125.772Zm0-.354a106.978,106.978,0,1,1-41.77,8.434A106.644,106.644,0,0,1,227.719,125.418Z" transform="translate(-38.983 -43.994)" fill="url(#linear-gradient)"/>
                <path id="Caminho_280" data-name="Caminho 280" d="M225.963,120.476a110.5,110.5,0,1,0,110.5,110.5A110.624,110.624,0,0,0,225.963,120.476Zm0-.354a110.5,110.5,0,1,1-43.148,8.712A110.153,110.153,0,0,1,225.963,120.122Z" transform="translate(-37.227 -42.238)" fill="url(#linear-gradient)"/>
                <path id="Caminho_281" data-name="Caminho 281" d="M224.206,115.179A114.039,114.039,0,1,0,338.245,229.218,114.168,114.168,0,0,0,224.206,115.179Zm0-.353a114.031,114.031,0,1,1-44.527,8.99A113.682,113.682,0,0,1,224.206,114.826Z" transform="translate(-35.471 -40.482)" fill="url(#linear-gradient)"/>
                <path id="Caminho_282" data-name="Caminho 282" d="M222.45,109.883A117.579,117.579,0,1,0,340.029,227.462,117.712,117.712,0,0,0,222.45,109.883Zm0-.353a117.561,117.561,0,1,1-45.9,9.268A117.188,117.188,0,0,1,222.45,109.53Z" transform="translate(-33.715 -38.726)" fill="url(#linear-gradient)"/>
                <path id="Caminho_283" data-name="Caminho 283" d="M220.694,104.587A121.119,121.119,0,1,0,341.814,225.705,121.256,121.256,0,0,0,220.694,104.587Zm0-.354a121.1,121.1,0,1,1-47.283,9.547A120.715,120.715,0,0,1,220.694,104.233Z" transform="translate(-31.959 -36.97)" fill="url(#linear-gradient)"/>
                <path id="Caminho_284" data-name="Caminho 284" d="M218.938,99.291A124.659,124.659,0,1,0,343.6,223.949,124.8,124.8,0,0,0,218.938,99.291Zm0-.354a124.628,124.628,0,1,1-48.66,9.825A124.224,124.224,0,0,1,218.938,98.937Z" transform="translate(-30.203 -35.214)" fill="url(#linear-gradient)"/>
                <path id="Caminho_285" data-name="Caminho 285" d="M217.182,93.994a128.2,128.2,0,1,0,128.2,128.2A128.345,128.345,0,0,0,217.182,93.994Zm0-.353a128.148,128.148,0,1,1-50.039,10.1A127.752,127.752,0,0,1,217.182,93.641Z" transform="translate(-28.446 -33.458)" fill="url(#linear-gradient)"/>
                <path id="Caminho_286" data-name="Caminho 286" d="M215.426,88.7c-72.642,0-131.739,59.1-131.739,131.739s59.1,131.739,131.739,131.739,131.739-59.1,131.739-131.739S288.067,88.7,215.426,88.7Zm0-.353A131.678,131.678,0,1,1,164.01,98.726,131.27,131.27,0,0,1,215.426,88.345Z" transform="translate(-26.69 -31.702)" fill="url(#linear-gradient)"/>
                <path id="Caminho_287" data-name="Caminho 287" d="M213.67,83.4c-74.593,0-135.279,60.686-135.279,135.279S139.077,353.96,213.67,353.96s135.279-60.685,135.279-135.279S288.263,83.4,213.67,83.4Zm0-.354a135.209,135.209,0,1,1-52.795,10.659A134.785,134.785,0,0,1,213.67,83.048Z" transform="translate(-24.934 -29.945)" fill="url(#linear-gradient)"/>
                <path id="Caminho_288" data-name="Caminho 288" d="M211.914,78.106c-76.545,0-138.82,62.274-138.82,138.819s62.275,138.82,138.82,138.82,138.82-62.274,138.82-138.82S288.46,78.106,211.914,78.106Zm0-.354A138.739,138.739,0,1,1,157.742,88.69,138.294,138.294,0,0,1,211.914,77.752Z" transform="translate(-23.178 -28.189)" fill="url(#linear-gradient)"/>
                <path id="Caminho_289" data-name="Caminho 289" d="M210.158,72.809c-78.5,0-142.36,63.863-142.36,142.36s63.862,142.36,142.36,142.36,142.36-63.862,142.36-142.36S288.655,72.809,210.158,72.809Zm0-.353a142.266,142.266,0,1,1-55.55,11.216A141.821,141.821,0,0,1,210.158,72.456Z" transform="translate(-21.422 -26.433)" fill="url(#linear-gradient)"/>
                <path id="Caminho_290" data-name="Caminho 290" d="M208.4,67.513c-80.449,0-145.9,65.451-145.9,145.9s65.451,145.9,145.9,145.9,145.9-65.45,145.9-145.9S288.851,67.513,208.4,67.513Zm0-.354a145.8,145.8,0,1,1-56.928,11.494A145.335,145.335,0,0,1,208.4,67.159Z" transform="translate(-19.666 -24.677)" fill="url(#linear-gradient)"/>
                <path id="Caminho_291" data-name="Caminho 291" d="M206.646,62.217c-82.4,0-149.44,67.039-149.44,149.44S124.244,361.1,206.646,361.1s149.44-67.038,149.44-149.44S289.048,62.217,206.646,62.217Zm0-.354a149.327,149.327,0,1,1-58.306,11.772A148.856,148.856,0,0,1,206.646,61.863Z" transform="translate(-17.91 -22.921)" fill="url(#linear-gradient)"/>
                <path id="Caminho_292" data-name="Caminho 292" d="M204.89,56.921c-84.354,0-152.981,68.626-152.981,152.98S120.536,362.881,204.89,362.881,357.87,294.254,357.87,209.9,289.243,56.921,204.89,56.921Zm0-.354A152.854,152.854,0,1,1,145.2,68.617,152.374,152.374,0,0,1,204.89,56.567Z" transform="translate(-16.154 -21.165)" fill="url(#linear-gradient)"/>
                <path id="Caminho_293" data-name="Caminho 293" d="M203.133,51.624c-86.306,0-156.521,70.215-156.521,156.521s70.215,156.521,156.521,156.521,156.521-70.214,156.521-156.521S289.439,51.624,203.133,51.624Zm0-.353A156.379,156.379,0,1,1,142.071,63.6,155.891,155.891,0,0,1,203.133,51.271Z" transform="translate(-14.398 -19.409)" fill="url(#linear-gradient)"/>
                <path id="Caminho_294" data-name="Caminho 294" d="M201.377,46.328c-88.257,0-160.061,71.8-160.061,160.061s71.8,160.061,160.061,160.061,160.061-71.8,160.061-160.061S289.635,46.328,201.377,46.328Zm0-.354a159.913,159.913,0,1,1-62.441,12.607A159.418,159.418,0,0,1,201.377,45.974Z" transform="translate(-12.642 -17.653)" fill="url(#linear-gradient)"/>
                <path id="Caminho_295" data-name="Caminho 295" d="M199.621,41.032c-90.21,0-163.6,73.391-163.6,163.6s73.391,163.6,163.6,163.6,163.6-73.391,163.6-163.6S289.831,41.032,199.621,41.032Zm0-.354A164,164,0,0,1,263.44,355.7,164,164,0,0,1,135.8,53.563,162.929,162.929,0,0,1,199.621,40.678Z" transform="translate(-10.886 -15.897)" fill="url(#linear-gradient)"/>
                <path id="Caminho_296" data-name="Caminho 296" d="M197.865,35.736c-92.162,0-167.141,74.979-167.141,167.141S105.7,370.018,197.865,370.018s167.141-74.979,167.141-167.141S290.028,35.736,197.865,35.736Zm0-.354a167.539,167.539,0,0,1,65.2,321.826A167.538,167.538,0,0,1,132.669,48.545,166.456,166.456,0,0,1,197.865,35.382Z" transform="translate(-9.13 -14.141)" fill="url(#linear-gradient)"/>
                <path id="Caminho_297" data-name="Caminho 297" d="M196.109,30.439C102,30.439,25.428,107.007,25.428,201.12S102,371.8,196.109,371.8,366.791,295.234,366.791,201.12,290.223,30.439,196.109,30.439Zm0-.353a171.079,171.079,0,0,1,66.574,328.628A171.079,171.079,0,0,1,129.535,43.527,169.964,169.964,0,0,1,196.109,30.086Z" transform="translate(-7.374 -12.385)" fill="url(#linear-gradient)"/>
                <path id="Caminho_298" data-name="Caminho 298" d="M194.353,25.143c-96.066,0-174.221,78.155-174.221,174.221S98.287,373.585,194.353,373.585,368.574,295.43,368.574,199.364,290.419,25.143,194.353,25.143Zm0-.354a174.621,174.621,0,0,1,67.953,335.43A174.62,174.62,0,0,1,126.4,38.509,173.482,173.482,0,0,1,194.353,24.789Z" transform="translate(-5.617 -10.628)" fill="url(#linear-gradient)"/>
                <path id="Caminho_299" data-name="Caminho 299" d="M192.6,19.847c-98.018,0-177.761,79.744-177.761,177.761S94.579,375.369,192.6,375.369s177.761-79.743,177.761-177.761S290.615,19.847,192.6,19.847Zm0-.354a178.162,178.162,0,0,1,69.33,342.232A178.161,178.161,0,0,1,123.267,33.491,177,177,0,0,1,192.6,19.493Z" transform="translate(-3.861 -8.872)" fill="url(#linear-gradient)"/>
                <path id="Caminho_300" data-name="Caminho 300" d="M190.841,14.551c-99.97,0-181.3,81.332-181.3,181.3s81.332,181.3,181.3,181.3,181.3-81.332,181.3-181.3S290.811,14.551,190.841,14.551Zm0-.354a181.7,181.7,0,0,1,70.708,349.035A181.7,181.7,0,0,1,120.133,28.473,180.515,180.515,0,0,1,190.841,14.2Z" transform="translate(-2.105 -7.116)" fill="url(#linear-gradient)"/>
                <path id="Caminho_301" data-name="Caminho 301" d="M189.085,9.254C87.163,9.254,4.243,92.174,4.243,194.1s82.92,184.842,184.842,184.842S373.927,296.019,373.927,194.1,291.007,9.254,189.085,9.254Zm0-.353a185.244,185.244,0,0,1,72.086,355.837A185.243,185.243,0,0,1,117,23.455,184.023,184.023,0,0,1,189.085,8.9Z" transform="translate(-0.349 -5.36)" fill="url(#linear-gradient)"/>
                <path id="Caminho_302" data-name="Caminho 302" d="M187.329,3.958C83.455,3.958-1.053,88.466-1.053,192.34S83.455,380.722,187.329,380.722,375.711,296.214,375.711,192.34,291.2,3.958,187.329,3.958Zm0,377.118a188.786,188.786,0,0,1-73.464-362.64A188.784,188.784,0,0,1,260.793,366.244,187.56,187.56,0,0,1,187.329,381.075Z" transform="translate(1.407 -3.604)" fill="url(#linear-gradient)"/>
              </g>
            </g>
          </g>
        </g>
      </g>
      <g id="Grupo_822" data-name="Grupo 822" transform="translate(182.318 328.891)">
        <g id="Grupo_821" data-name="Grupo 821" clip-path="url(#clip-path-3)">
          <g id="Grupo_820" data-name="Grupo 820" transform="translate(-185.369 34.064)" opacity="0.7">
            <g id="Grupo_819" data-name="Grupo 819" transform="translate(0)" clip-path="url(#clip-path-4)">
              <g id="Grupo_818" data-name="Grupo 818" transform="translate(0 0)">
                <path id="Caminho_303" data-name="Caminho 303" d="M285.8,853.828a7.834,7.834,0,1,0-7.834-7.833A7.842,7.842,0,0,0,285.8,853.828Zm0-16.02a8.187,8.187,0,1,1-8.188,8.187A8.2,8.2,0,0,1,285.8,837.808Z" transform="translate(-97.066 -657.259)" fill="url(#linear-gradient-53)"/>
                <path id="Caminho_304" data-name="Caminho 304" d="M284.046,855.612a11.374,11.374,0,1,0-11.374-11.373A11.387,11.387,0,0,0,284.046,855.612Zm0-23.1a11.693,11.693,0,1,1-4.565.924A11.656,11.656,0,0,1,284.046,832.512Z" transform="translate(-95.31 -655.503)" fill="url(#linear-gradient)"/>
                <path id="Caminho_305" data-name="Caminho 305" d="M282.29,857.4a14.914,14.914,0,1,0-14.915-14.913A14.931,14.931,0,0,0,282.29,857.4Zm0-30.181a15.216,15.216,0,1,1-5.943,1.2A15.189,15.189,0,0,1,282.29,827.215Z" transform="translate(-93.554 -653.747)" fill="url(#linear-gradient)"/>
                <path id="Caminho_306" data-name="Caminho 306" d="M280.533,859.181a18.454,18.454,0,1,0-18.455-18.454A18.475,18.475,0,0,0,280.533,859.181Zm0-37.262a18.743,18.743,0,1,1-7.321,1.48A18.7,18.7,0,0,1,280.533,821.919Z" transform="translate(-91.798 -651.991)" fill="url(#linear-gradient)"/>
                <path id="Caminho_307" data-name="Caminho 307" d="M278.777,860.965a21.994,21.994,0,1,0-21.995-21.994A22.019,22.019,0,0,0,278.777,860.965Zm0-44.341a22.273,22.273,0,1,1-8.7,1.758A22.212,22.212,0,0,1,278.777,816.623Z" transform="translate(-90.042 -650.235)" fill="url(#linear-gradient)"/>
                <path id="Caminho_308" data-name="Caminho 308" d="M277.021,862.749a25.534,25.534,0,1,0-25.535-25.534A25.563,25.563,0,0,0,277.021,862.749Zm0-51.422a25.8,25.8,0,1,1-10.077,2.036A25.738,25.738,0,0,1,277.021,811.327Z" transform="translate(-88.286 -648.479)" fill="url(#linear-gradient)"/>
                <path id="Caminho_309" data-name="Caminho 309" d="M275.265,864.533a29.075,29.075,0,1,0-29.075-29.075A29.108,29.108,0,0,0,275.265,864.533Zm0-58.5a29.337,29.337,0,1,1-11.455,2.315A29.249,29.249,0,0,1,275.265,806.03Z" transform="translate(-86.53 -646.723)" fill="url(#linear-gradient)"/>
                <path id="Caminho_310" data-name="Caminho 310" d="M273.509,866.317A32.615,32.615,0,1,0,240.894,833.7,32.652,32.652,0,0,0,273.509,866.317Zm0-65.583a32.866,32.866,0,1,1-12.833,2.593A32.775,32.775,0,0,1,273.509,800.734Z" transform="translate(-84.773 -644.967)" fill="url(#linear-gradient)"/>
                <path id="Caminho_311" data-name="Caminho 311" d="M271.753,868.1A36.155,36.155,0,1,0,235.6,831.946,36.2,36.2,0,0,0,271.753,868.1Zm0-72.663a36.4,36.4,0,1,1-14.211,2.871A36.281,36.281,0,0,1,271.753,795.438Z" transform="translate(-83.017 -643.211)" fill="url(#linear-gradient)"/>
                <path id="Caminho_312" data-name="Caminho 312" d="M270,869.885a39.695,39.695,0,1,0-39.7-39.695A39.74,39.74,0,0,0,270,869.885Zm0-79.743a39.925,39.925,0,1,1-15.589,3.149A39.8,39.8,0,0,1,270,790.142Z" transform="translate(-81.261 -641.455)" fill="url(#linear-gradient)"/>
                <path id="Caminho_313" data-name="Caminho 313" d="M268.241,871.669A43.235,43.235,0,1,0,225,828.434,43.285,43.285,0,0,0,268.241,871.669Zm0-86.824a43.458,43.458,0,1,1-16.967,3.428A43.32,43.32,0,0,1,268.241,784.845Z" transform="translate(-79.505 -639.698)" fill="url(#linear-gradient)"/>
                <path id="Caminho_314" data-name="Caminho 314" d="M266.485,873.453a46.775,46.775,0,1,0-46.776-46.775A46.828,46.828,0,0,0,266.485,873.453Zm0-93.9a46.978,46.978,0,1,1-18.345,3.705A46.829,46.829,0,0,1,266.485,779.549Z" transform="translate(-77.749 -637.942)" fill="url(#linear-gradient)"/>
                <path id="Caminho_315" data-name="Caminho 315" d="M264.729,875.237a50.315,50.315,0,1,0-50.316-50.315A50.373,50.373,0,0,0,264.729,875.237Zm0-100.984a50.507,50.507,0,1,1-19.723,3.983A50.37,50.37,0,0,1,264.729,774.253Z" transform="translate(-75.993 -636.186)" fill="url(#linear-gradient)"/>
                <path id="Caminho_316" data-name="Caminho 316" d="M262.973,877.021a53.856,53.856,0,1,0-53.856-53.855A53.916,53.916,0,0,0,262.973,877.021Zm0-108.064a54.035,54.035,0,1,1-21.1,4.261A53.881,53.881,0,0,1,262.973,768.957Z" transform="translate(-74.237 -634.43)" fill="url(#linear-gradient)"/>
                <path id="Caminho_317" data-name="Caminho 317" d="M261.217,878.806a57.4,57.4,0,1,0-57.4-57.4A57.461,57.461,0,0,0,261.217,878.806Zm0-115.146a57.569,57.569,0,1,1-22.479,4.54A57.4,57.4,0,0,1,261.217,763.66Z" transform="translate(-72.481 -632.674)" fill="url(#linear-gradient)"/>
                <path id="Caminho_318" data-name="Caminho 318" d="M259.461,880.59a60.936,60.936,0,1,0-60.937-60.936A61.005,61.005,0,0,0,259.461,880.59Zm0-122.226a61.1,61.1,0,1,1-23.857,4.818A60.912,60.912,0,0,1,259.461,758.364Z" transform="translate(-70.725 -630.918)" fill="url(#linear-gradient)"/>
                <path id="Caminho_319" data-name="Caminho 319" d="M257.7,882.374A64.476,64.476,0,1,0,193.228,817.9,64.549,64.549,0,0,0,257.7,882.374Zm0-129.306a64.625,64.625,0,1,1-25.235,5.1A64.429,64.429,0,0,1,257.7,753.068Z" transform="translate(-68.969 -629.162)" fill="url(#linear-gradient)"/>
                <path id="Caminho_320" data-name="Caminho 320" d="M255.948,884.158a68.016,68.016,0,1,0-68.017-68.016A68.093,68.093,0,0,0,255.948,884.158Zm0-136.386a68.155,68.155,0,1,1-26.613,5.374A67.952,67.952,0,0,1,255.948,747.772Z" transform="translate(-67.213 -627.406)" fill="url(#linear-gradient)"/>
                <path id="Caminho_321" data-name="Caminho 321" d="M254.192,885.942a71.557,71.557,0,1,0-71.557-71.557A71.638,71.638,0,0,0,254.192,885.942Zm0-143.467a71.687,71.687,0,1,1-27.991,5.653A71.468,71.468,0,0,1,254.192,742.475Z" transform="translate(-65.457 -625.65)" fill="url(#linear-gradient)"/>
                <path id="Caminho_322" data-name="Caminho 322" d="M252.436,887.726a75.1,75.1,0,1,0-75.1-75.1A75.182,75.182,0,0,0,252.436,887.726Zm0-150.547a75.216,75.216,0,1,1-29.369,5.931A74.974,74.974,0,0,1,252.436,737.179Z" transform="translate(-63.701 -623.894)" fill="url(#linear-gradient)"/>
                <path id="Caminho_323" data-name="Caminho 323" d="M250.68,889.51a78.637,78.637,0,1,0-78.637-78.637A78.726,78.726,0,0,0,250.68,889.51Zm0-157.627a78.745,78.745,0,1,1-30.747,6.209A78.5,78.5,0,0,1,250.68,731.883Z" transform="translate(-61.944 -622.138)" fill="url(#linear-gradient)"/>
                <path id="Caminho_324" data-name="Caminho 324" d="M248.924,891.294a82.177,82.177,0,1,0-82.177-82.177A82.27,82.27,0,0,0,248.924,891.294Zm0-164.707a82.268,82.268,0,1,1-32.125,6.486A82.024,82.024,0,0,1,248.924,726.587Z" transform="translate(-60.188 -620.382)" fill="url(#linear-gradient)"/>
                <path id="Caminho_325" data-name="Caminho 325" d="M247.168,893.078a85.717,85.717,0,1,0-85.717-85.717A85.815,85.815,0,0,0,247.168,893.078Zm0-171.788a85.8,85.8,0,1,1-33.5,6.765A85.547,85.547,0,0,1,247.168,721.29Z" transform="translate(-58.432 -618.625)" fill="url(#linear-gradient)"/>
                <path id="Caminho_326" data-name="Caminho 326" d="M245.412,894.862A89.257,89.257,0,1,0,156.154,805.6,89.359,89.359,0,0,0,245.412,894.862Zm0-178.868a89.33,89.33,0,1,1-34.881,7.043A89.061,89.061,0,0,1,245.412,715.994Z" transform="translate(-56.676 -616.869)" fill="url(#linear-gradient)"/>
                <path id="Caminho_327" data-name="Caminho 327" d="M243.656,896.646a92.8,92.8,0,1,0-92.8-92.8A92.9,92.9,0,0,0,243.656,896.646Zm0-185.948a92.856,92.856,0,1,1-36.259,7.321A92.574,92.574,0,0,1,243.656,710.7Z" transform="translate(-54.92 -615.113)" fill="url(#linear-gradient)"/>
                <path id="Caminho_328" data-name="Caminho 328" d="M241.9,898.43a96.338,96.338,0,1,0-96.338-96.337A96.446,96.446,0,0,0,241.9,898.43Zm0-193.028a96.387,96.387,0,1,1-37.637,7.6A96.1,96.1,0,0,1,241.9,705.4Z" transform="translate(-53.164 -613.357)" fill="url(#linear-gradient)"/>
                <path id="Caminho_329" data-name="Caminho 329" d="M240.144,900.215a99.878,99.878,0,1,0-99.878-99.878A99.992,99.992,0,0,0,240.144,900.215Zm0-200.11a99.918,99.918,0,1,1-39.015,7.878A99.605,99.605,0,0,1,240.144,700.1Z" transform="translate(-51.408 -611.601)" fill="url(#linear-gradient)"/>
                <path id="Caminho_330" data-name="Caminho 330" d="M238.388,902A103.418,103.418,0,1,0,134.969,798.581,103.535,103.535,0,0,0,238.388,902Zm0-207.19A103.448,103.448,0,1,1,198,702.965,103.133,103.133,0,0,1,238.388,694.809Z" transform="translate(-49.652 -609.845)" fill="url(#linear-gradient)"/>
                <path id="Caminho_331" data-name="Caminho 331" d="M236.631,903.783A106.958,106.958,0,1,0,129.673,796.825,107.079,107.079,0,0,0,236.631,903.783Zm0-214.27a106.974,106.974,0,1,1-41.771,8.434A106.646,106.646,0,0,1,236.631,689.513Z" transform="translate(-47.896 -608.089)" fill="url(#linear-gradient)"/>
                <path id="Caminho_332" data-name="Caminho 332" d="M234.875,905.567a110.5,110.5,0,1,0-110.5-110.5A110.623,110.623,0,0,0,234.875,905.567Zm0-221.35a110.5,110.5,0,1,1-43.148,8.712A110.158,110.158,0,0,1,234.875,684.217Z" transform="translate(-46.14 -606.333)" fill="url(#linear-gradient)"/>
                <path id="Caminho_333" data-name="Caminho 333" d="M233.119,907.351A114.039,114.039,0,1,0,119.081,793.312,114.168,114.168,0,0,0,233.119,907.351Zm0-228.431a114.039,114.039,0,1,1-44.527,8.991A113.676,113.676,0,0,1,233.119,678.92Z" transform="translate(-44.384 -604.577)" fill="url(#linear-gradient)"/>
                <path id="Caminho_334" data-name="Caminho 334" d="M231.363,909.135A117.579,117.579,0,1,0,113.784,791.556,117.712,117.712,0,0,0,231.363,909.135Zm0-235.511a117.558,117.558,0,1,1-45.905,9.268A117.2,117.2,0,0,1,231.363,673.624Z" transform="translate(-42.628 -602.821)" fill="url(#linear-gradient)"/>
                <path id="Caminho_335" data-name="Caminho 335" d="M229.607,910.919A121.119,121.119,0,1,0,108.488,789.8,121.256,121.256,0,0,0,229.607,910.919Zm0-242.591a121.088,121.088,0,1,1-47.283,9.546A120.726,120.726,0,0,1,229.607,668.328Z" transform="translate(-40.872 -601.065)" fill="url(#linear-gradient)"/>
                <path id="Caminho_336" data-name="Caminho 336" d="M227.851,912.7A124.659,124.659,0,1,0,103.192,788.044,124.8,124.8,0,0,0,227.851,912.7Zm0-249.671a124.618,124.618,0,1,1-48.661,9.825A124.242,124.242,0,0,1,227.851,663.032Z" transform="translate(-39.115 -599.309)" fill="url(#linear-gradient)"/>
                <path id="Caminho_337" data-name="Caminho 337" d="M226.095,914.487a128.2,128.2,0,1,0-128.2-128.2A128.345,128.345,0,0,0,226.095,914.487Zm0-256.752a128.152,128.152,0,1,1-50.039,10.1A127.748,127.748,0,0,1,226.095,657.735Z" transform="translate(-37.359 -597.552)" fill="url(#linear-gradient)"/>
                <path id="Caminho_338" data-name="Caminho 338" d="M224.339,916.271c72.641,0,131.739-59.1,131.739-131.739s-59.1-131.739-131.739-131.739S92.6,711.89,92.6,784.532,151.7,916.271,224.339,916.271Zm0-263.832a131.679,131.679,0,1,1-51.417,10.381A131.276,131.276,0,0,1,224.339,652.439Z" transform="translate(-35.603 -595.796)" fill="url(#linear-gradient)"/>
                <path id="Caminho_339" data-name="Caminho 339" d="M222.583,918.055c74.593,0,135.279-60.686,135.279-135.279S297.176,647.5,222.583,647.5,87.3,708.183,87.3,782.776,147.989,918.055,222.583,918.055Zm0-270.912A135.209,135.209,0,1,1,169.788,657.8,134.79,134.79,0,0,1,222.583,647.143Z" transform="translate(-33.847 -594.04)" fill="url(#linear-gradient)"/>
                <path id="Caminho_340" data-name="Caminho 340" d="M220.827,919.839c76.545,0,138.819-62.274,138.819-138.819S297.372,642.2,220.827,642.2,82.007,704.474,82.007,781.02,144.281,919.839,220.827,919.839Zm0-277.992a138.737,138.737,0,1,1-54.173,10.938A138.308,138.308,0,0,1,220.827,641.847Z" transform="translate(-32.091 -592.284)" fill="url(#linear-gradient)"/>
                <path id="Caminho_341" data-name="Caminho 341" d="M219.071,921.624c78.5,0,142.36-63.862,142.36-142.36S297.568,636.9,219.071,636.9s-142.36,63.862-142.36,142.36S140.573,921.624,219.071,921.624Zm0-285.074a142.271,142.271,0,1,1-55.55,11.216A141.822,141.822,0,0,1,219.071,636.55Z" transform="translate(-30.335 -590.528)" fill="url(#linear-gradient)"/>
                <path id="Caminho_342" data-name="Caminho 342" d="M217.315,923.408c80.449,0,145.9-65.451,145.9-145.9s-65.451-145.9-145.9-145.9-145.9,65.45-145.9,145.9S136.864,923.408,217.315,923.408Zm0-292.154a145.8,145.8,0,1,1-56.929,11.494A145.334,145.334,0,0,1,217.315,631.254Z" transform="translate(-28.579 -588.772)" fill="url(#linear-gradient)"/>
                <path id="Caminho_343" data-name="Caminho 343" d="M215.559,925.192c82.4,0,149.44-67.039,149.44-149.44s-67.039-149.44-149.44-149.44S66.118,693.35,66.118,775.752,133.157,925.192,215.559,925.192Zm0-299.234a149.32,149.32,0,1,1-58.306,11.772A148.872,148.872,0,0,1,215.559,625.958Z" transform="translate(-26.823 -587.016)" fill="url(#linear-gradient)"/>
                <path id="Caminho_344" data-name="Caminho 344" d="M213.8,926.976c84.353,0,152.98-68.626,152.98-152.98S298.155,621.015,213.8,621.015,60.822,689.642,60.822,774,129.449,926.976,213.8,926.976Zm0-306.314a152.846,152.846,0,1,1-59.685,12.05A152.379,152.379,0,0,1,213.8,620.662Z" transform="translate(-25.067 -585.26)" fill="url(#linear-gradient)"/>
                <path id="Caminho_345" data-name="Caminho 345" d="M212.046,928.76c86.306,0,156.521-70.215,156.521-156.521S298.352,615.719,212.046,615.719,55.526,685.933,55.526,772.239,125.74,928.76,212.046,928.76Zm0-313.4a156.381,156.381,0,1,1-61.062,12.329A155.907,155.907,0,0,1,212.046,615.365Z" transform="translate(-23.311 -583.504)" fill="url(#linear-gradient)"/>
                <path id="Caminho_346" data-name="Caminho 346" d="M210.29,930.544c88.257,0,160.061-71.8,160.061-160.061s-71.8-160.061-160.061-160.061S50.23,682.225,50.23,770.483,122.032,930.544,210.29,930.544Zm0-320.475a159.91,159.91,0,1,1-62.441,12.607A159.417,159.417,0,0,1,210.29,610.069Z" transform="translate(-21.555 -581.748)" fill="url(#linear-gradient)"/>
                <path id="Caminho_347" data-name="Caminho 347" d="M208.534,932.328c90.21,0,163.6-73.391,163.6-163.6s-73.391-163.6-163.6-163.6-163.6,73.391-163.6,163.6S118.324,932.328,208.534,932.328Zm0-327.555a163.44,163.44,0,1,1-63.818,12.885A162.931,162.931,0,0,1,208.534,604.773Z" transform="translate(-19.799 -579.992)" fill="url(#linear-gradient)"/>
                <path id="Caminho_348" data-name="Caminho 348" d="M206.778,934.112c92.162,0,167.141-74.979,167.141-167.141S298.94,599.83,206.778,599.83,39.637,674.809,39.637,766.971,114.616,934.112,206.778,934.112Zm0-334.635a166.968,166.968,0,1,1-65.2,13.163A166.448,166.448,0,0,1,206.778,599.477Z" transform="translate(-18.042 -578.236)" fill="url(#linear-gradient)"/>
                <path id="Caminho_349" data-name="Caminho 349" d="M205.022,935.9c94.113,0,170.681-76.568,170.681-170.681S299.135,594.534,205.022,594.534,34.341,671.1,34.341,765.215,110.908,935.9,205.022,935.9Zm0-341.716a170.5,170.5,0,1,1-66.575,13.441A169.965,169.965,0,0,1,205.022,594.181Z" transform="translate(-16.286 -576.48)" fill="url(#linear-gradient)"/>
                <path id="Caminho_350" data-name="Caminho 350" d="M203.266,937.68c96.066,0,174.221-78.155,174.221-174.221S299.332,589.238,203.266,589.238,29.045,667.393,29.045,763.459,107.2,937.68,203.266,937.68Zm0-348.8a174.032,174.032,0,1,1-67.952,13.72A173.493,173.493,0,0,1,203.266,588.884Z" transform="translate(-14.53 -574.723)" fill="url(#linear-gradient)"/>
                <path id="Caminho_351" data-name="Caminho 351" d="M201.51,939.464c98.018,0,177.761-79.744,177.761-177.761S299.528,583.942,201.51,583.942,23.748,663.685,23.748,761.7,103.492,939.464,201.51,939.464Zm0-355.876a177.558,177.558,0,1,1-69.331,14A177,177,0,0,1,201.51,583.588Z" transform="translate(-12.774 -572.967)" fill="url(#linear-gradient)"/>
                <path id="Caminho_352" data-name="Caminho 352" d="M199.754,941.248c99.97,0,181.3-81.331,181.3-181.3s-81.332-181.3-181.3-181.3-181.3,81.332-181.3,181.3S99.784,941.248,199.754,941.248Zm0-362.956a181.088,181.088,0,1,1-70.708,14.276A180.515,180.515,0,0,1,199.754,578.292Z" transform="translate(-11.018 -571.211)" fill="url(#linear-gradient)"/>
                <path id="Caminho_353" data-name="Caminho 353" d="M198,943.033c101.922,0,184.842-82.92,184.842-184.842S299.92,573.349,198,573.349,13.156,656.269,13.156,758.191,96.075,943.033,198,943.033ZM198,573a184.608,184.608,0,1,1-72.087,14.553A184.048,184.048,0,0,1,198,573Z" transform="translate(-9.262 -569.455)" fill="url(#linear-gradient)"/>
                <path id="Caminho_354" data-name="Caminho 354" d="M196.242,944.817c103.874,0,188.382-84.508,188.382-188.382S300.116,568.053,196.242,568.053,7.86,652.56,7.86,756.435,92.367,944.817,196.242,944.817Zm0-377.118a188.141,188.141,0,1,1-73.464,14.832A187.564,187.564,0,0,1,196.242,567.7Z" transform="translate(-7.506 -567.699)" fill="url(#linear-gradient-104)"/>
              </g>
            </g>
          </g>
        </g>
      </g>
    </g>
    <g id="Grupo_1030" data-name="Grupo 1030" transform="translate(-1528.339 3842.198)">
      <text id="L2B" transform="translate(-182.661 -201.198)" fill="#bf0012" font-size="68" font-family="Canela-Medium, Canela" font-weight="500" letter-spacing="0.05em"><tspan x="0" y="0">L2B</tspan></text>
      <text id="galeria" transform="translate(-182.661 -139.228)" fill="#bf0012" font-size="69" font-family="HelveticaLTStd-Light, Helvetica LT Std" font-weight="300" letter-spacing="-0.03em"><tspan x="0" y="0">galeria</tspan></text>
    </g>
  </g>
</svg>
