<svg width="48" height="48" viewBox="0 0 48 48" fill="none" xmlns="http://www.w3.org/2000/svg">
<path d="M24.0004 6.5459C19.2602 6.5459 18.6653 6.56663 16.8035 6.65135C14.9454 6.73644 13.6771 7.03063 12.5673 7.46226C11.4193 7.90808 10.4455 8.50444 9.47538 9.47499C8.5045 10.4452 7.90815 11.419 7.46089 12.5666C7.02818 13.6768 6.73364 14.9455 6.65001 16.803C6.56674 18.6648 6.54492 19.2601 6.54492 24.0004C6.54492 28.7408 6.56601 29.3339 6.65037 31.1957C6.73583 33.0539 7.03 34.3223 7.46126 35.4321C7.90743 36.5801 8.50377 37.5539 9.47429 38.5241C10.4441 39.495 11.4179 40.0928 12.5651 40.5386C13.6756 40.9703 14.9443 41.2644 16.8021 41.3495C18.6638 41.4343 19.2584 41.455 23.9982 41.455C28.7388 41.455 29.3319 41.4343 31.1936 41.3495C33.0518 41.2644 34.3215 40.9703 35.432 40.5386C36.5796 40.0928 37.552 39.495 38.5218 38.5241C39.4927 37.5539 40.089 36.5801 40.5363 35.4324C40.9653 34.3223 41.2599 33.0535 41.3471 31.1961C41.4308 29.3343 41.4526 28.7408 41.4526 24.0004C41.4526 19.2601 41.4308 18.6652 41.3471 16.8034C41.2599 14.9452 40.9653 13.6768 40.5363 12.567C40.089 11.419 39.4927 10.4452 38.5218 9.47499C37.5509 8.50408 36.58 7.90772 35.431 7.46226C34.3183 7.03063 33.0492 6.73644 31.1911 6.65135C29.3293 6.56663 28.7366 6.5459 23.9949 6.5459H24.0004ZM22.4346 9.69135C22.8993 9.69063 23.4179 9.69135 24.0004 9.69135C28.6606 9.69135 29.213 9.70808 31.0533 9.79172C32.755 9.86953 33.6786 10.1539 34.2939 10.3928C35.1084 10.7092 35.6891 11.0874 36.2997 11.6983C36.9105 12.3092 37.2887 12.891 37.6058 13.7055C37.8447 14.3201 38.1294 15.2437 38.2069 16.9455C38.2905 18.7855 38.3087 19.3383 38.3087 23.9964C38.3087 28.6546 38.2905 29.2074 38.2069 31.0474C38.1291 32.7492 37.8447 33.6728 37.6058 34.2874C37.2894 35.1019 36.9105 35.6819 36.2997 36.2924C35.6888 36.9034 35.1088 37.2815 34.2939 37.5979C33.6794 37.8379 32.755 38.1215 31.0533 38.1994C29.2133 38.283 28.6606 38.3012 24.0004 38.3012C19.3398 38.3012 18.7875 38.283 16.9475 38.1994C15.2457 38.1208 14.3221 37.8364 13.7065 37.5975C12.892 37.2812 12.3102 36.903 11.6993 36.2921C11.0884 35.6812 10.7103 35.1008 10.3932 34.2859C10.1543 33.6714 9.86955 32.7477 9.7921 31.0459C9.70846 29.2059 9.69174 28.6532 9.69174 23.9921C9.69174 19.331 9.70846 18.7812 9.7921 16.9412C9.86991 15.2394 10.1543 14.3157 10.3932 13.7004C10.7095 12.8859 11.0884 12.3041 11.6993 11.6932C12.3102 11.0823 12.892 10.7041 13.7065 10.387C14.3218 10.147 15.2457 9.86335 16.9475 9.78517C18.5576 9.71244 19.1816 9.69063 22.4346 9.68699V9.69135ZM33.3172 12.5895C32.1609 12.5895 31.2227 13.5266 31.2227 14.6834C31.2227 15.8397 32.1609 16.7779 33.3172 16.7779C34.4735 16.7779 35.4117 15.8397 35.4117 14.6834C35.4117 13.527 34.4735 12.5888 33.3172 12.5888V12.5895ZM24.0004 15.0368C19.0504 15.0368 15.037 19.0503 15.037 24.0004C15.037 28.9506 19.0504 32.9623 24.0004 32.9623C28.9504 32.9623 32.9623 28.9506 32.9623 24.0004C32.9623 19.0503 28.9501 15.0368 24 15.0368H24.0004ZM24.0004 18.1823C27.2134 18.1823 29.8184 20.787 29.8184 24.0004C29.8184 27.2135 27.2134 29.8186 24.0004 29.8186C20.787 29.8186 18.1824 27.2135 18.1824 24.0004C18.1824 20.787 20.787 18.1823 24.0004 18.1823V18.1823Z" fill="url(#paint0_radial_608_836)"/>
<path d="M24.0004 6.5459C19.2602 6.5459 18.6653 6.56663 16.8035 6.65135C14.9454 6.73644 13.6771 7.03063 12.5673 7.46226C11.4193 7.90808 10.4455 8.50444 9.47538 9.47499C8.5045 10.4452 7.90815 11.419 7.46089 12.5666C7.02818 13.6768 6.73364 14.9455 6.65001 16.803C6.56674 18.6648 6.54492 19.2601 6.54492 24.0004C6.54492 28.7408 6.56601 29.3339 6.65037 31.1957C6.73583 33.0539 7.03 34.3223 7.46126 35.4321C7.90743 36.5801 8.50377 37.5539 9.47429 38.5241C10.4441 39.495 11.4179 40.0928 12.5651 40.5386C13.6756 40.9703 14.9443 41.2644 16.8021 41.3495C18.6638 41.4343 19.2584 41.455 23.9982 41.455C28.7388 41.455 29.3319 41.4343 31.1936 41.3495C33.0518 41.2644 34.3215 40.9703 35.432 40.5386C36.5796 40.0928 37.552 39.495 38.5218 38.5241C39.4927 37.5539 40.089 36.5801 40.5363 35.4324C40.9653 34.3223 41.2599 33.0535 41.3471 31.1961C41.4308 29.3343 41.4526 28.7408 41.4526 24.0004C41.4526 19.2601 41.4308 18.6652 41.3471 16.8034C41.2599 14.9452 40.9653 13.6768 40.5363 12.567C40.089 11.419 39.4927 10.4452 38.5218 9.47499C37.5509 8.50408 36.58 7.90772 35.431 7.46226C34.3183 7.03063 33.0492 6.73644 31.1911 6.65135C29.3293 6.56663 28.7366 6.5459 23.9949 6.5459H24.0004ZM22.4346 9.69135C22.8993 9.69063 23.4179 9.69135 24.0004 9.69135C28.6606 9.69135 29.213 9.70808 31.0533 9.79172C32.755 9.86953 33.6786 10.1539 34.2939 10.3928C35.1084 10.7092 35.6891 11.0874 36.2997 11.6983C36.9105 12.3092 37.2887 12.891 37.6058 13.7055C37.8447 14.3201 38.1294 15.2437 38.2069 16.9455C38.2905 18.7855 38.3087 19.3383 38.3087 23.9964C38.3087 28.6546 38.2905 29.2074 38.2069 31.0474C38.1291 32.7492 37.8447 33.6728 37.6058 34.2874C37.2894 35.1019 36.9105 35.6819 36.2997 36.2924C35.6888 36.9034 35.1088 37.2815 34.2939 37.5979C33.6794 37.8379 32.755 38.1215 31.0533 38.1994C29.2133 38.283 28.6606 38.3012 24.0004 38.3012C19.3398 38.3012 18.7875 38.283 16.9475 38.1994C15.2457 38.1208 14.3221 37.8364 13.7065 37.5975C12.892 37.2812 12.3102 36.903 11.6993 36.2921C11.0884 35.6812 10.7103 35.1008 10.3932 34.2859C10.1543 33.6714 9.86955 32.7477 9.7921 31.0459C9.70846 29.2059 9.69174 28.6532 9.69174 23.9921C9.69174 19.331 9.70846 18.7812 9.7921 16.9412C9.86991 15.2394 10.1543 14.3157 10.3932 13.7004C10.7095 12.8859 11.0884 12.3041 11.6993 11.6932C12.3102 11.0823 12.892 10.7041 13.7065 10.387C14.3218 10.147 15.2457 9.86335 16.9475 9.78517C18.5576 9.71244 19.1816 9.69063 22.4346 9.68699V9.69135ZM33.3172 12.5895C32.1609 12.5895 31.2227 13.5266 31.2227 14.6834C31.2227 15.8397 32.1609 16.7779 33.3172 16.7779C34.4735 16.7779 35.4117 15.8397 35.4117 14.6834C35.4117 13.527 34.4735 12.5888 33.3172 12.5888V12.5895ZM24.0004 15.0368C19.0504 15.0368 15.037 19.0503 15.037 24.0004C15.037 28.9506 19.0504 32.9623 24.0004 32.9623C28.9504 32.9623 32.9623 28.9506 32.9623 24.0004C32.9623 19.0503 28.9501 15.0368 24 15.0368H24.0004ZM24.0004 18.1823C27.2134 18.1823 29.8184 20.787 29.8184 24.0004C29.8184 27.2135 27.2134 29.8186 24.0004 29.8186C20.787 29.8186 18.1824 27.2135 18.1824 24.0004C18.1824 20.787 20.787 18.1823 24.0004 18.1823V18.1823Z" fill="url(#paint1_radial_608_836)"/>
<defs>
<radialGradient id="paint0_radial_608_836" cx="0" cy="0" r="1" gradientUnits="userSpaceOnUse" gradientTransform="translate(15.8173 44.1437) rotate(-90) scale(34.5975 32.1771)">
<stop stop-color="#FFDD55"/>
<stop offset="0.1" stop-color="#FFDD55"/>
<stop offset="0.5" stop-color="#FF543E"/>
<stop offset="1" stop-color="#C837AB"/>
</radialGradient>
<radialGradient id="paint1_radial_608_836" cx="0" cy="0" r="1" gradientUnits="userSpaceOnUse" gradientTransform="translate(0.697703 9.06069) rotate(78.6811) scale(15.4652 63.7458)">
<stop stop-color="#3771C8"/>
<stop offset="0.128" stop-color="#3771C8"/>
<stop offset="1" stop-color="#6600FF" stop-opacity="0"/>
</radialGradient>
</defs>
</svg>
