<svg xmlns="http://www.w3.org/2000/svg" width="60" height="60" viewBox="0 0 60 60">
  <g id="Grupo_867" data-name="Grupo 867" transform="translate(-158 -704)">
    <g id="Grupo_1017" data-name="Grupo 1017" transform="translate(158 704)">
      <g id="Caminho_17" data-name="Caminho 17" fill="rgba(70,70,70,0.26)">
        <path d="M 30.00000190734863 59.00001525878906 C 26.08458137512207 59.00001525878906 22.28682136535645 58.23339462280273 18.71220207214355 56.72146606445313 C 15.2590217590332 55.26088714599609 12.15754222869873 53.16974639892578 9.493902206420898 50.50610733032227 C 6.83027172088623 47.84247589111328 4.739131927490234 44.74099731445313 3.278551816940308 41.28781509399414 C 1.766621947288513 37.71318435668945 1.000001907348633 33.91542434692383 1.000001907348633 30.0000057220459 C 1.000001907348633 26.08458518981934 1.766621947288513 22.28682518005371 3.278551816940308 18.71220588684082 C 4.739131927490234 15.2590160369873 6.83027172088623 12.15753555297852 9.493902206420898 9.493906021118164 C 12.15754222869873 6.830275535583496 15.2590217590332 4.739125728607178 18.71220207214355 3.278555631637573 C 22.28682136535645 1.766625761985779 26.08458137512207 1.000005722045898 30.00000190734863 1.000005722045898 C 33.91542053222656 1.000005722045898 37.71318054199219 1.766625761985779 41.28780364990234 3.278555631637573 C 44.74098205566406 4.739125728607178 47.84246063232422 6.830275535583496 50.506103515625 9.493906021118164 C 53.16973114013672 12.15753555297852 55.26087188720703 15.2590160369873 56.72145080566406 18.71220588684082 C 58.23338317871094 22.28682518005371 59 26.08458518981934 59 30.0000057220459 C 59 33.91542434692383 58.23338317871094 37.71318435668945 56.72145080566406 41.28781509399414 C 55.26087188720703 44.74099731445313 53.16973114013672 47.84247589111328 50.506103515625 50.50610733032227 C 47.84246063232422 53.16974639892578 44.74098205566406 55.26088714599609 41.28780364990234 56.72146606445313 C 37.71318054199219 58.23339462280273 33.91542053222656 59.00001525878906 30.00000190734863 59.00001525878906 Z" stroke="none"/>
        <path d="M 30.00000190734863 1.999996185302734 C 26.21914291381836 1.999996185302734 22.55244064331055 2.740036010742188 19.10175323486328 4.199554443359375 C 15.76777267456055 5.609706878662109 12.77312088012695 7.628887176513672 10.20101165771484 10.20100402832031 C 7.628890991210938 12.77312469482422 5.609710693359375 15.76776504516602 4.199562072753906 19.10174560546875 C 2.740043640136719 22.55244445800781 2.000003814697266 26.21914672851563 2.000003814697266 30.0000057220459 C 2.000003814697266 33.78086853027344 2.740043640136719 37.44756317138672 4.199562072753906 40.89825439453125 C 5.609710693359375 44.23223495483398 7.628890991210938 47.22687530517578 10.20101165771484 49.79899597167969 C 12.77312088012695 52.37111663818359 15.76777267456055 54.39029693603516 19.10175323486328 55.80044555664063 C 22.55244064331055 57.25996398925781 26.21914291381836 58.00000762939453 30.00000190734863 58.00000762939453 C 33.78086090087891 58.00000762939453 37.44756317138672 57.25996398925781 40.89825439453125 55.80044555664063 C 44.23223114013672 54.39029693603516 47.22687149047852 52.37111663818359 49.79899215698242 49.79899597167969 C 52.37111282348633 47.22687530517578 54.39029312133789 44.23223495483398 55.80044174194336 40.89825439453125 C 57.25996017456055 37.44756317138672 58 33.78086853027344 58 30.0000057220459 C 58 26.21914672851563 57.25996017456055 22.55244445800781 55.80044174194336 19.10175704956055 C 54.39029312133789 15.76776504516602 52.37111282348633 12.77312469482422 49.79899215698242 10.20100402832031 C 47.22687149047852 7.628887176513672 44.23223114013672 5.609706878662109 40.89825439453125 4.199554443359375 C 37.44756317138672 2.740036010742188 33.78086090087891 1.999996185302734 30.00000190734863 1.999996185302734 M 30.00000190734863 -3.814697265625e-06 C 46.56854248046875 -3.814697265625e-06 60 13.43145751953125 60 30.0000057220459 C 60 46.56854629516602 46.56854248046875 60.00000762939453 30.00000190734863 60.00000762939453 C 13.43145370483398 60.00000762939453 3.814697265625e-06 46.56854629516602 3.814697265625e-06 30.0000057220459 C 3.814697265625e-06 13.43145751953125 13.43145370483398 -3.814697265625e-06 30.00000190734863 -3.814697265625e-06 Z" stroke="none" fill="#fff"/>
      </g>
    </g>
    <g id="map" transform="translate(177 724)">
      <path id="Caminho_386" data-name="Caminho 386" d="M1,6V22l7-4,8,4,7-4V2L16,6,8,2Z" transform="translate(-1 -2)" fill="none" stroke="#fff" stroke-linecap="round" stroke-linejoin="round" stroke-width="2"/>
      <line id="Linha_7" data-name="Linha 7" y2="16" transform="translate(7)" fill="none" stroke="#fff" stroke-linecap="round" stroke-linejoin="round" stroke-width="2"/>
      <line id="Linha_8" data-name="Linha 8" y2="16" transform="translate(15 4)" fill="none" stroke="#fff" stroke-linecap="round" stroke-linejoin="round" stroke-width="2"/>
    </g>
  </g>
</svg>
