<svg width="48" height="48" viewBox="0 0 48 48" fill="none" xmlns="http://www.w3.org/2000/svg">
<path d="M24.5701 16.9317C21.2202 12.6664 18.419 11.041 15.0663 11.041C8.23113 11.041 2.99414 19.9362 2.99414 29.3513C2.99414 35.2431 5.84442 38.959 10.6187 38.959C14.0548 38.959 16.5261 37.3392 20.9193 29.6595C20.9193 29.6595 22.7507 26.4255 24.0106 24.1976C24.452 24.9104 24.916 25.6773 25.4054 26.5017L27.4658 29.9674C31.4787 36.6831 33.7149 38.959 37.7664 38.959C42.4175 38.959 45.0058 35.1923 45.0058 29.1782C45.0058 19.3201 39.6508 11.041 33.1454 11.041C29.7006 11.041 27.0079 13.6357 24.5701 16.9317ZM31.0125 26.8772L28.5493 22.7691C27.8829 21.685 27.2441 20.6886 26.6277 19.7754C28.8474 16.3488 30.6788 14.6416 32.8567 14.6416C37.3814 14.6416 41.0012 21.3034 41.0012 29.4861C41.0012 32.6051 39.9794 34.415 37.8627 34.415C35.8339 34.415 34.8646 33.0753 31.0125 26.8772ZM7.53793 29.4283C7.53793 22.5932 10.9459 15.6042 15.0085 15.6042C17.2084 15.6042 19.0468 16.8748 21.8629 20.9061C19.1889 25.0075 17.5691 27.5799 17.5691 27.5799C14.0074 33.1635 12.7751 34.415 10.792 34.415C8.75096 34.415 7.53793 32.6233 7.53793 29.4283Z" fill="#1080F8"/>
<path d="M2.99414 29.3513C2.99414 19.9362 8.23113 11.041 15.0663 11.041L15.0085 15.6042C10.9459 15.6042 7.53793 22.5932 7.53793 29.4283C7.53793 32.6233 8.75097 34.415 10.792 34.415L10.6187 38.959C5.84442 38.959 2.99414 35.2431 2.99414 29.3513Z" fill="url(#paint0_linear_608_835)"/>
<path d="M15.0656 11.041C18.4183 11.041 21.2196 12.6664 24.5694 16.9317C26.0243 18.7842 27.3159 20.7639 28.5486 22.7691L31.0118 26.8772C34.8639 33.0753 35.8332 34.415 37.862 34.415L37.7657 38.959C33.7142 38.959 31.478 36.6831 27.4651 29.9674L25.4047 26.5017C24.9153 25.6773 24.4513 24.9104 24.01 24.1976C23.5879 23.5161 22.6057 21.9704 21.8622 20.9061C19.0461 16.8748 17.2077 15.6042 15.0078 15.6042L15.0656 11.041Z" fill="url(#paint1_linear_608_835)"/>
<path d="M45.005 29.1777C45.005 35.1918 42.4168 38.9585 37.7656 38.9585L37.8619 34.4146C39.9787 34.4146 41.0005 32.6047 41.0005 29.4857L45.005 29.1777Z" fill="url(#paint2_linear_608_835)"/>
<defs>
<linearGradient id="paint0_linear_608_835" x1="15.0663" y1="15.607" x2="13.8815" y2="29.1482" gradientUnits="userSpaceOnUse">
<stop stop-color="#0C64DD"/>
<stop offset="1" stop-color="#1080F8"/>
</linearGradient>
<linearGradient id="paint1_linear_608_835" x1="24.5693" y1="16.9923" x2="37.862" y2="34.4089" gradientUnits="userSpaceOnUse">
<stop stop-color="#0C64DD"/>
<stop offset="1" stop-color="#1076EE"/>
</linearGradient>
<linearGradient id="paint2_linear_608_835" x1="37.8583" y1="34.4127" x2="41.1301" y2="29.8485" gradientUnits="userSpaceOnUse">
<stop stop-color="#1077EF"/>
<stop offset="1" stop-color="#1080F8" stop-opacity="0"/>
</linearGradient>
</defs>
</svg>
